<svg 
 xmlns="http://www.w3.org/2000/svg"
 xmlns:xlink="http://www.w3.org/1999/xlink"
 width="19px" height="28px">
<path fill-rule="evenodd"  fill="rgb(0, 134, 240)"
 d="M18.838,25.933 C18.435,27.125 17.271,28.000 15.891,28.000 L3.109,28.000 C1.727,28.000 0.561,27.122 0.160,25.927 C0.058,25.698 -0.000,25.447 -0.000,25.184 L-0.000,25.035 L-0.000,23.751 L-0.000,2.965 C-0.000,1.334 1.399,-0.000 3.109,-0.000 L15.891,-0.000 C17.601,-0.000 19.000,1.334 19.000,2.965 L19.000,23.751 L19.000,25.035 L19.000,25.184 C19.000,25.451 18.942,25.704 18.838,25.933 ZM11.037,24.228 C11.037,23.405 10.329,22.729 9.466,22.729 C8.602,22.729 7.894,23.405 7.894,24.228 C7.894,25.052 8.602,25.727 9.466,25.727 C10.329,25.727 11.037,25.052 11.037,24.228 ZM15.891,1.976 L3.109,1.976 C2.539,1.976 2.073,2.421 2.073,2.965 L2.073,21.856 L16.927,21.856 L16.927,2.965 C16.927,2.421 16.461,1.976 15.891,1.976 Z"/>
</svg>